<svg width="870" height="870" viewBox="0 0 870 870" fill="none" xmlns="http://www.w3.org/2000/svg">
<path d="M435 72.5C482.604 72.5 529.742 81.8763 573.723 100.094C617.703 118.311 657.665 145.013 691.326 178.674C724.987 212.335 751.689 252.297 769.906 296.277C788.124 340.258 797.5 387.396 797.5 435C797.5 531.141 759.308 623.344 691.326 691.326C623.344 759.308 531.141 797.5 435 797.5C387.396 797.5 340.258 788.124 296.277 769.906C252.297 751.689 212.335 724.987 178.674 691.326C110.692 623.344 72.5 531.141 72.5 435C72.5 338.859 110.692 246.656 178.674 178.674C246.656 110.692 338.859 72.5 435 72.5ZM435 145C287.1 145 164.938 255.562 147.175 398.75H294.713C310.663 336.038 367.575 290 435 290C502.425 290 559.337 336.038 575.288 398.75H722.825C705.062 255.562 582.9 145 435 145ZM435 725C582.9 725 705.062 614.438 722.825 471.25H575.288C559.337 533.962 502.425 580 435 580C367.575 580 310.663 533.962 294.713 471.25H147.175C164.938 614.438 287.1 725 435 725ZM435 362.5C415.772 362.5 397.331 370.138 383.735 383.735C370.138 397.331 362.5 415.772 362.5 435C362.5 454.228 370.138 472.669 383.735 486.265C397.331 499.862 415.772 507.5 435 507.5C454.228 507.5 472.669 499.862 486.265 486.265C499.862 472.669 507.5 454.228 507.5 435C507.5 415.772 499.862 397.331 486.265 383.735C472.669 370.138 454.228 362.5 435 362.5Z" fill="#D6E4F0"/>
</svg>
